<svg width="169" height="40" viewBox="0 0 169 40" fill="none" xmlns="http://www.w3.org/2000/svg">
<g clip-path="url(#clip0_10106_5086)">
<path d="M5.50575 0C7.75171 0 9.38646 0.45206 10.4051 1.35132C11.4238 2.25058 11.9332 3.78661 11.9332 5.95941C11.9332 8.69607 10.8902 10.4314 8.80436 11.1605L11.7634 16.313C11.9089 16.5415 11.9429 16.7408 11.8604 16.9109C11.7779 17.0811 11.6082 17.1637 11.3511 17.1637H8.70734C8.28531 17.1637 7.97 16.979 7.76142 16.6047L5.14194 11.7438H3.88071V16.4832C3.88071 16.9352 3.65272 17.1637 3.20158 17.1637H0.679124C0.227992 17.1637 0 16.9352 0 16.4832V0.68052C0 0.22846 0.227992 0 0.679124 0H5.50575ZM5.4815 8.4822C6.41772 8.4822 7.07259 8.29262 7.43641 7.90862C7.80022 7.52947 7.97971 6.87811 7.97971 5.95455C7.97971 5.03099 7.79537 4.33589 7.43641 3.97132C7.07744 3.60676 6.41287 3.42204 5.45725 3.42204H3.88071V8.47734H5.4815V8.4822Z" fill="#006395"/>
<path d="M22.5809 14.0722C23.032 13.9118 23.2988 14.0577 23.3813 14.5097L23.648 15.9437C23.7111 16.2985 23.551 16.5659 23.163 16.7457C22.1443 17.1832 20.9801 17.4019 19.6703 17.4019C17.5505 17.4019 15.9739 16.8429 14.9407 15.7249C13.9075 14.6069 13.3884 12.8813 13.3884 10.5481C13.3884 6.01294 15.2318 3.74292 18.9184 3.74292C22.3965 3.74292 24.1331 5.81851 24.1331 9.96482V11.3016C24.1331 11.7536 23.9003 11.9821 23.4298 11.9821H17.0023C17.1964 13.7174 18.1908 14.5826 19.9856 14.5826C20.8927 14.5826 21.7562 14.4125 22.5809 14.0722ZM17.502 7.21843C17.1867 7.70452 16.9975 8.51628 16.9296 9.64886H20.7618V9.40582C20.7618 7.46148 20.1554 6.48931 18.9427 6.48931C18.2975 6.48931 17.8124 6.73235 17.4971 7.21843H17.502Z" fill="#006395"/>
<path d="M29.5661 17.4019C28.2078 17.4019 27.0291 17.2221 26.0249 16.8672C25.6514 16.7554 25.4913 16.5124 25.5398 16.1381L25.7824 14.5097C25.8309 14.0868 26.0831 13.9507 26.5343 14.0965C27.228 14.3396 28.0478 14.4611 28.984 14.4611C30.2792 14.4611 30.9243 14.1063 30.9243 13.3917C30.9243 13.1487 30.8273 12.9299 30.6333 12.7355C30.4392 12.5411 30.2307 12.3807 30.0027 12.2591C29.7747 12.1376 29.3866 11.9578 28.8384 11.7147C28.4164 11.5349 28.1302 11.4085 27.975 11.3259C27.8198 11.2432 27.5772 11.112 27.2377 10.9224C26.8981 10.7328 26.6556 10.553 26.51 10.378C26.3645 10.1981 26.1996 9.97454 26.0104 9.70719C25.826 9.43985 25.6951 9.12875 25.6223 8.77391C25.5495 8.41907 25.5107 8.01075 25.5107 7.55869C25.5107 5.01646 27.0727 3.74292 30.1918 3.74292C31.4385 3.74292 32.53 3.90333 33.4662 4.22901C33.8397 4.34081 33.9901 4.58385 33.927 4.95813L33.6845 6.56222C33.636 6.98511 33.4031 7.13094 32.9811 6.99969C32.2389 6.79068 31.5161 6.68374 30.8225 6.68374C30.2258 6.68374 29.7892 6.76151 29.5127 6.91706C29.2362 7.07261 29.1004 7.33509 29.1004 7.70452C29.1004 8.04478 29.2605 8.32185 29.5855 8.54545C29.9105 8.76419 30.4829 9.0607 31.3075 9.43499C32.3893 9.90649 33.1945 10.4315 33.7233 11.0148C34.2472 11.5981 34.5091 12.439 34.5091 13.5424C34.5091 16.1187 32.8598 17.4068 29.5612 17.4068L29.5661 17.4019Z" fill="#006395"/>
<path d="M40.3109 7.55869V12.7598C40.3109 13.3285 40.3933 13.7077 40.5534 13.9021C40.7135 14.0965 41.024 14.1938 41.4751 14.1938C41.5381 14.1938 41.6497 14.184 41.8049 14.1695C41.9602 14.1549 42.0669 14.1452 42.13 14.1452C42.5035 14.1111 42.6975 14.3056 42.7121 14.7285L42.7848 16.4541C42.7994 16.7797 42.6247 16.9985 42.2512 17.1103C41.7516 17.2561 41.1598 17.329 40.4807 17.329C39.1079 17.329 38.1377 17.0325 37.5701 16.4395C37.0026 15.8465 36.7212 14.8062 36.7212 13.3139V7.55383H35.8481C35.4454 7.55383 35.2417 7.34967 35.2417 6.94622V5.1234C35.2417 4.70051 35.4454 4.49149 35.8481 4.49149H36.7455V1.70136C36.7455 1.29791 36.9541 1.09375 37.3761 1.09375H39.656C40.0926 1.09375 40.3109 1.29791 40.3109 1.70136V4.49635H42.1057C42.5277 4.49635 42.7363 4.71509 42.7363 5.15257V6.92678C42.7363 7.34967 42.5277 7.55869 42.1057 7.55869H40.3109Z" fill="#006395"/>
<path d="M54.4027 16.5268C54.4027 16.9497 54.1941 17.1587 53.7721 17.1587H51.8317C51.4291 17.1587 51.2011 16.9789 51.1526 16.624L51.0556 15.7734C50.3619 16.8088 49.2122 17.3289 47.6114 17.3289C46.5103 17.3289 45.6323 16.9983 44.9774 16.3324C44.3225 15.6664 43.9927 14.6943 43.9927 13.4159C43.9927 12.7013 44.1042 12.0889 44.3225 11.5687C44.5408 11.0486 44.8367 10.6306 45.2054 10.3146C45.5789 9.99869 46.0689 9.74592 46.6752 9.56121C47.2816 9.3765 47.9073 9.24525 48.5574 9.17234C49.2025 9.09943 49.9787 9.05568 50.8858 9.03624V8.33141C50.8858 7.78214 50.7257 7.37869 50.4104 7.12592C50.0951 6.87316 49.5906 6.75163 48.8921 6.75163C48.0189 6.75163 47.0245 6.93635 45.9088 7.31063C45.4576 7.44188 45.1957 7.29605 45.1326 6.87316L44.8658 5.22046C44.8028 4.84618 44.9483 4.59827 45.3024 4.46703C46.4812 3.99553 47.8588 3.76221 49.4257 3.76221C51.1574 3.76221 52.4187 4.10733 53.2094 4.79271C54.0001 5.48295 54.3978 6.5572 54.3978 8.01546V16.522L54.4027 16.5268ZM50.8858 11.1556C49.6731 11.1896 48.8096 11.3403 48.2906 11.6028C47.7715 11.8701 47.5144 12.3902 47.5144 13.1728C47.5144 14.2276 47.9753 14.7526 48.8969 14.7526C49.576 14.7526 50.0757 14.5436 50.4007 14.1207C50.7257 13.6978 50.8858 13.1388 50.8858 12.4437V11.1556Z" fill="#006395"/>
<path d="M56.5857 4.64206C56.5857 4.20458 56.7943 3.98584 57.2163 3.98584H59.6175C60.0395 3.98584 60.2481 4.20458 60.2481 4.64206V12.1764C60.2481 12.8423 60.3548 13.3381 60.5634 13.6735C60.772 14.0041 61.1358 14.1693 61.6549 14.1693C62.237 14.1693 62.6833 13.9603 62.9889 13.5374C63.2945 13.1145 63.4497 12.5312 63.4497 11.7875V4.64206C63.4497 4.20458 63.6583 3.98584 64.0803 3.98584H66.4815C66.9035 3.98584 67.1121 4.20458 67.1121 4.64206V16.5269C67.1121 16.9497 66.9035 17.1588 66.4815 17.1588H64.3229C63.9008 17.1588 63.668 16.9789 63.6195 16.6241L63.5225 15.7491C62.8288 16.8525 61.7761 17.4018 60.3694 17.4018C57.8469 17.4018 56.5857 15.9776 56.5857 13.1243V4.64206Z" fill="#006395"/>
<path d="M72.2298 3.98602C72.6179 3.98602 72.8362 4.19018 72.8847 4.59363L73.0059 5.95467C73.2485 5.40539 73.6269 4.91931 74.1459 4.49641C74.6649 4.07352 75.2761 3.8645 75.9892 3.8645C76.2318 3.8645 76.3967 3.91311 76.484 4.01033C76.5713 4.10754 76.615 4.26795 76.615 4.49641V7.2428C76.615 7.61708 76.4355 7.8018 76.0814 7.8018C75.9989 7.8018 75.8777 7.78721 75.7079 7.76291C75.5381 7.73861 75.3877 7.72402 75.2567 7.72402C74.5776 7.72402 74.0392 7.98165 73.6414 8.50176C73.2436 9.02187 73.0447 9.70725 73.0447 10.5676V16.5222C73.0447 16.9451 72.8362 17.1541 72.4141 17.1541H70.0129C69.5909 17.1541 69.3823 16.9451 69.3823 16.5222V4.64224C69.3823 4.20476 69.5909 3.98602 70.0129 3.98602H72.2201H72.2298Z" fill="#006395"/>
<path d="M87.4371 16.5268C87.4371 16.9497 87.2285 17.1587 86.8065 17.1587H84.8661C84.4635 17.1587 84.2355 16.9789 84.187 16.624L84.09 15.7734C83.3963 16.8088 82.2467 17.3289 80.6459 17.3289C79.5447 17.3289 78.6667 16.9983 78.0118 16.3324C77.357 15.6664 77.0271 14.6943 77.0271 13.4159C77.0271 12.7013 77.1387 12.0889 77.357 11.5687C77.5753 11.0486 77.8712 10.6306 78.2398 10.3146C78.6133 9.99869 79.1033 9.74592 79.7096 9.56121C80.316 9.3765 80.9418 9.24525 81.5918 9.17234C82.237 9.09943 83.0131 9.05568 83.9202 9.03624V8.33141C83.9202 7.78214 83.7601 7.37869 83.4448 7.12592C83.1295 6.87316 82.625 6.75163 81.9265 6.75163C81.0533 6.75163 80.0589 6.93635 78.9432 7.31063C78.4921 7.44188 78.2301 7.29605 78.1671 6.87316L77.9003 5.22046C77.8372 4.84618 77.9827 4.59827 78.3368 4.46703C79.5156 3.99553 80.8933 3.76221 82.4601 3.76221C84.1919 3.76221 85.4531 4.10733 86.2438 4.79271C87.0345 5.48295 87.4323 6.5572 87.4323 8.01546V16.522L87.4371 16.5268ZM83.9202 11.1556C82.7075 11.1896 81.844 11.3403 81.325 11.6028C80.8059 11.8701 80.5488 12.3902 80.5488 13.1728C80.5488 14.2276 81.0097 14.7526 81.9313 14.7526C82.6105 14.7526 83.1101 14.5436 83.4351 14.1207C83.7601 13.6978 83.9202 13.1388 83.9202 12.4437V11.1556Z" fill="#006395"/>
<path d="M100.268 16.527C100.268 16.9499 100.059 17.1589 99.6373 17.1589H97.2361C96.8141 17.1589 96.6055 16.9499 96.6055 16.527V8.99265C96.6055 8.32671 96.4939 7.83576 96.2756 7.51008C96.0573 7.18441 95.6886 7.024 95.1745 7.024C93.9617 7.024 93.3554 7.84062 93.3554 9.47873V16.527C93.3554 16.9499 93.1371 17.1589 92.7005 17.1589H90.2993C89.8773 17.1589 89.6687 16.9499 89.6687 16.527V4.64218C89.6687 4.2047 89.8773 3.98596 90.2993 3.98596H92.458C92.88 3.98596 93.1128 4.16581 93.1613 4.52066L93.2826 5.39561C93.9763 4.2922 95.0774 3.74292 96.5812 3.74292C99.0406 3.74292 100.268 5.2352 100.268 8.21491V16.527Z" fill="#006395"/>
<path d="M106.671 7.55869V12.7598C106.671 13.3285 106.753 13.7077 106.914 13.9021C107.074 14.0965 107.384 14.1938 107.835 14.1938C107.898 14.1938 108.01 14.184 108.165 14.1695C108.32 14.1549 108.427 14.1452 108.49 14.1452C108.864 14.1111 109.058 14.3056 109.072 14.7285L109.145 16.4541C109.159 16.7797 108.985 16.9985 108.611 17.1103C108.112 17.2561 107.52 17.329 106.841 17.329C105.468 17.329 104.498 17.0325 103.93 16.4395C103.363 15.8465 103.081 14.8062 103.081 13.3139V7.55383H102.208C101.806 7.55383 101.602 7.34967 101.602 6.94622V5.1234C101.602 4.70051 101.806 4.49149 102.208 4.49149H103.106V1.70136C103.106 1.29791 103.314 1.09375 103.736 1.09375H106.016C106.453 1.09375 106.671 1.29791 106.671 1.70136V4.49635H108.466C108.888 4.49635 109.096 4.71509 109.096 5.15257V6.92678C109.096 7.34967 108.888 7.55869 108.466 7.55869H106.671Z" fill="#006395"/>
<path d="M119.55 14.0722C120.001 13.9118 120.268 14.0577 120.35 14.5097L120.617 15.9437C120.68 16.2985 120.52 16.5659 120.132 16.7457C119.114 17.1832 117.949 17.4019 116.64 17.4019C114.52 17.4019 112.943 16.8429 111.91 15.7249C110.877 14.6069 110.358 12.8813 110.358 10.5481C110.358 6.01294 112.201 3.74292 115.888 3.74292C119.366 3.74292 121.102 5.81851 121.102 9.96482V11.3016C121.102 11.7536 120.87 11.9821 120.399 11.9821H113.972C114.166 13.7174 115.16 14.5826 116.955 14.5826C117.862 14.5826 118.725 14.4125 119.55 14.0722ZM114.466 7.21843C114.151 7.70452 113.962 8.51628 113.894 9.64886H117.726V9.40582C117.726 7.46148 117.12 6.48931 115.907 6.48931C115.262 6.48931 114.777 6.73235 114.462 7.21843H114.466Z" fill="#006395"/>
<path d="M0.460834 37.3266C0.155228 37.3266 0 37.1662 0 36.8406V20.7268C0 20.4011 0.155228 20.2407 0.460834 20.2407H4.43856C6.6069 20.2407 8.17374 20.6976 9.14392 21.6163C10.1141 22.5302 10.5992 24.0759 10.5992 26.2487C10.5992 28.4215 10.1189 29.9576 9.15362 30.8568C8.18829 31.7561 6.62631 32.2033 4.46281 32.2033H2.49821V36.8454C2.49821 37.1711 2.33813 37.3315 2.01312 37.3315H0.460834V37.3266ZM4.46281 29.9381C5.77255 29.9381 6.69422 29.6708 7.22782 29.1361C7.76142 28.6014 8.02821 27.6292 8.02821 26.2196C8.02821 24.8099 7.76142 23.8572 7.22782 23.3128C6.69422 22.7684 5.77255 22.4962 4.46281 22.4962H2.49821V29.9333H4.46281V29.9381Z" fill="#D91A21"/>
<path d="M13.825 35.8685C12.9372 34.7505 12.491 33.0832 12.491 30.8618C12.491 28.6404 12.9372 26.9974 13.825 25.8794C14.7127 24.7614 15.9982 24.2024 17.6814 24.2024C19.3647 24.2024 20.6308 24.7614 21.5282 25.8794C22.4256 26.9974 22.8719 28.6598 22.8719 30.8618C22.8719 33.0637 22.4256 34.7505 21.5379 35.8685C20.6502 36.9865 19.3647 37.5454 17.6814 37.5454C15.9982 37.5454 14.7127 36.9865 13.825 35.8685ZM20.4707 30.8618C20.4707 27.7654 19.5393 26.2196 17.6814 26.2196C15.8235 26.2196 14.8922 27.7654 14.8922 30.8618C14.8922 33.9581 15.8235 35.5282 17.6814 35.5282C19.5393 35.5282 20.4707 33.9727 20.4707 30.8618Z" fill="#D91A21"/>
<path d="M27.5773 26.171C27.8344 25.5877 28.2855 25.1114 28.9258 24.7468C29.5661 24.3822 30.2792 24.2024 31.0748 24.2024C34.1793 24.2024 35.7316 26.4238 35.7316 30.8618C35.7316 33.0978 35.3338 34.7699 34.5334 35.883C33.733 36.9913 32.5785 37.5503 31.0796 37.5503C30.255 37.5503 29.537 37.385 28.921 37.0496C28.3049 36.7191 27.878 36.2427 27.6355 35.6303V39.5676C27.6355 39.8592 27.4803 40.005 27.1746 40.005H25.7194C25.4138 40.005 25.2585 39.8592 25.2585 39.5676V24.8878C25.2585 24.5815 25.4138 24.426 25.7194 24.426H27.1019C27.4075 24.426 27.5627 24.5621 27.5627 24.8392L27.587 26.1759L27.5773 26.171ZM30.5363 35.5282C31.4725 35.5282 32.1711 35.1588 32.6222 34.4199C33.0733 33.6811 33.3013 32.495 33.3013 30.8569C33.3013 29.2188 33.0782 28.0376 32.6319 27.3085C32.1856 26.5794 31.4871 26.2148 30.5315 26.2148C28.5765 26.2148 27.5967 27.7605 27.5967 30.8569C27.5967 33.9533 28.5765 35.5233 30.5315 35.5233L30.5363 35.5282Z" fill="#D91A21"/>
<path d="M37.9583 24.8829C37.9583 24.5767 38.1038 24.4211 38.3948 24.4211H39.8744C40.1654 24.4211 40.3109 24.5767 40.3109 24.8829V32.8061C40.3109 33.6665 40.471 34.313 40.7815 34.7505C41.0968 35.1879 41.6352 35.4067 42.3968 35.4067C43.2069 35.4067 43.8521 35.1247 44.3372 34.556C44.8223 33.9873 45.0648 33.2193 45.0648 32.2471V24.8829C45.0648 24.5767 45.2103 24.4211 45.5014 24.4211H46.9809C47.2574 24.4211 47.3932 24.5767 47.3932 24.8829V36.8892C47.3932 37.1809 47.2574 37.3267 46.9809 37.3267H45.5499C45.2588 37.3267 45.1133 37.1906 45.1133 36.9135L45.0648 35.6497C44.4342 36.9135 43.3282 37.5455 41.7419 37.5455C40.4662 37.5455 39.5154 37.1712 38.8896 36.4275C38.2687 35.6838 37.9583 34.6289 37.9583 33.2679V24.8829Z" fill="#D91A21"/>
<path d="M52.6564 36.8892C52.6564 37.1808 52.5109 37.3266 52.2198 37.3266H50.7403C50.4492 37.3266 50.3037 37.1808 50.3037 36.8892V20.6782C50.3037 20.3865 50.4492 20.2407 50.7403 20.2407H52.2198C52.5109 20.2407 52.6564 20.3865 52.6564 20.6782V36.8892Z" fill="#D91A21"/>
<path d="M64.3471 36.8892C64.3471 37.1809 64.1919 37.3267 63.8862 37.3267H62.6008C62.3097 37.3267 62.1642 37.1906 62.1642 36.9135L62.1399 35.5768C61.4608 36.8552 60.2481 37.4968 58.5018 37.4968C57.3715 37.4968 56.4886 37.176 55.858 36.5344C55.2274 35.8927 54.9121 34.9886 54.9121 33.822C54.9121 32.9616 55.0819 32.2422 55.4215 31.6589C55.761 31.0756 56.2655 30.6284 56.9349 30.3125C57.6044 29.9965 58.3465 29.7729 59.1566 29.6417C59.9667 29.5104 60.9369 29.4375 62.0672 29.4229V28.4994C62.0672 27.707 61.878 27.1237 61.4948 26.7592C61.1164 26.3946 60.4955 26.2148 59.6417 26.2148C58.6861 26.2148 57.6529 26.4238 56.5372 26.8467C56.2461 26.9293 56.0666 26.8321 56.0036 26.555L55.7368 25.4127C55.6883 25.1697 55.795 24.9996 56.0521 24.9023C57.1532 24.4308 58.4387 24.1975 59.9085 24.1975C61.3783 24.1975 62.5668 24.5426 63.2799 25.228C63.993 25.9183 64.3471 26.9682 64.3471 28.3778V36.8843V36.8892ZM62.0672 31.0805C61.2571 31.1145 60.5973 31.1631 60.0783 31.236C59.5593 31.3089 59.0596 31.4353 58.5745 31.6152C58.0894 31.795 57.7353 32.0527 57.5073 32.3929C57.2793 32.7332 57.1678 33.1707 57.1678 33.7053C57.1678 34.3032 57.3279 34.7845 57.6432 35.1393C57.9585 35.4941 58.429 35.674 59.0596 35.674C59.9958 35.674 60.7332 35.3775 61.2668 34.7893C61.8004 34.1963 62.0672 33.4574 62.0672 32.563V31.0805Z" fill="#D91A21"/>
<path d="M68.9553 24.4209C69.2609 24.4209 69.4161 24.5668 69.4161 24.8584L69.4404 26.6326C69.6489 26.0153 70.0419 25.4758 70.6191 25.014C71.1964 24.5522 71.8852 24.3237 72.6953 24.3237C72.9864 24.3237 73.1319 24.4598 73.1319 24.7369V26.5111C73.1319 26.7687 73.0106 26.9 72.7681 26.9C72.7196 26.9 72.6274 26.8903 72.4867 26.8757C72.3509 26.8611 72.2151 26.8514 72.0889 26.8514C71.3128 26.8514 70.6822 27.2257 70.1971 27.9694C69.712 28.7131 69.4695 29.6318 69.4695 30.7158V36.889C69.4695 37.1807 69.3142 37.3265 69.0086 37.3265H67.5534C67.2478 37.3265 67.0925 37.1807 67.0925 36.889V24.8827C67.0925 24.5765 67.2478 24.4209 67.5534 24.4209H68.9601H68.9553Z" fill="#D91A21"/>
<path d="M87.3644 32.4172L83.605 24.8828V36.8406C83.605 37.1662 83.4594 37.3266 83.1684 37.3266H81.6161C81.3105 37.3266 81.1553 37.1662 81.1553 36.8406V20.7025C81.1553 20.3963 81.3105 20.2407 81.6161 20.2407H83.1199C83.3964 20.2407 83.5807 20.3379 83.6777 20.5324L87.8252 28.8201L91.997 20.5324C92.094 20.3379 92.2735 20.2407 92.5306 20.2407H94.0344C94.34 20.2407 94.4952 20.3963 94.4952 20.7025V36.8406C94.4952 37.1662 94.34 37.3266 94.0344 37.3266H92.4821C92.191 37.3266 92.0455 37.1662 92.0455 36.8406V24.8828L88.2861 32.4172C88.2036 32.6116 88.0532 32.7088 87.8252 32.7088C87.6312 32.7088 87.476 32.6116 87.3644 32.4172Z" fill="#D91A21"/>
<path d="M104.076 20.2407C104.381 20.2407 104.585 20.4011 104.682 20.7268L109.387 36.8162C109.436 36.9621 109.426 37.0836 109.349 37.1808C109.276 37.278 109.164 37.3266 109.024 37.3266H107.35C107.093 37.3266 106.913 37.1808 106.816 36.8892L105.773 33.1463H100.292L99.249 36.8892C99.186 37.1808 99.0065 37.3266 98.7154 37.3266H97.0419C96.7023 37.3266 96.5713 37.1565 96.6538 36.8162L101.359 20.7268C101.456 20.4011 101.66 20.2407 101.966 20.2407H104.076ZM105.167 30.9346L103.057 22.7927H103.008L100.898 30.9346H105.167Z" fill="#D91A21"/>
<path d="M156.092 15.584C156.053 15.5645 156.009 15.5548 155.971 15.5548H150.901C150.795 15.5548 150.703 15.4868 150.669 15.3847L149.373 11.3162C149.15 10.6113 148.5 10.135 147.763 10.1252C147.021 10.1252 146.366 10.587 146.128 11.2918L144.76 15.3896C144.726 15.4868 144.634 15.5548 144.532 15.5548H139.904C139.167 15.5548 138.517 16.0263 138.284 16.7311C138.056 17.436 138.299 18.204 138.895 18.6463L142.592 21.3684C142.674 21.4316 142.713 21.5434 142.679 21.6406L141.248 25.9376C140.865 27.0799 141.733 28.3826 143.329 28.2174C143.373 28.2174 143.417 28.1931 143.455 28.1687L147.511 25.2036C147.598 25.1404 147.714 25.1404 147.797 25.2036L151.401 27.8625C151.702 28.0861 152.056 28.1979 152.415 28.1979C152.774 28.1979 153.113 28.091 153.409 27.8771C154.016 27.4445 154.268 26.6716 154.04 25.9668L152.667 21.6503C152.633 21.5483 152.667 21.4413 152.754 21.3781L156.499 18.6463C156.528 18.6269 156.553 18.6026 156.582 18.5783C157.474 17.8346 157.47 16.318 156.092 15.584ZM152.444 18.5005L150.412 19.9879C149.975 20.3039 149.791 20.8677 149.956 21.383L150.683 23.6725C150.756 23.8961 150.499 24.0808 150.31 23.9398L148.398 22.5302C148.175 22.3649 147.918 22.2871 147.656 22.2871C147.394 22.2871 147.137 22.3649 146.924 22.5253L145.022 23.9106C144.833 24.0516 144.576 23.862 144.649 23.6384L145.396 21.3927C145.57 20.8775 145.396 20.3087 144.954 19.9879L142.927 18.4908C142.737 18.3498 142.834 18.0533 143.072 18.0533H146.342C146.448 18.0533 146.54 17.9853 146.57 17.888L147.496 15.1028C147.569 14.8792 147.884 14.884 147.957 15.1028L148.617 17.1783C148.782 17.6985 149.262 18.0533 149.81 18.0533H152.303C152.536 18.0533 152.638 18.3547 152.444 18.4908V18.5005Z" fill="#006395"/>
<path d="M163.819 27.809C163.8 27.8625 163.776 27.9159 163.747 27.9694C163.742 27.9694 163.737 27.984 163.732 27.9889C160.744 33.8462 154.656 37.8126 147.714 37.8126C141.748 37.8126 136.169 34.8475 132.822 29.8992C132.386 29.2624 132.551 28.3923 133.191 27.9548C133.831 27.5222 134.699 27.6875 135.131 28.3242C138.071 32.6699 142.859 35.0176 147.729 35.0176C150.664 35.0176 153.628 34.167 156.242 32.3928C158.396 30.9297 160.128 28.9464 161.282 26.6521C161.646 25.9667 162.49 25.7091 163.174 26.0737C163.8 26.4091 164.067 27.1625 163.819 27.809Z" fill="#FEBD11"/>
<path d="M161.801 10.7766C161.205 11.2676 160.322 11.1801 159.832 10.5822C159.812 10.5579 159.793 10.5336 159.774 10.5044C154.375 3.43188 143.795 2.40138 137.154 8.82744C136.591 9.35241 135.708 9.32324 135.18 8.75452C134.67 8.20525 134.685 7.34487 135.214 6.81504C143.072 -0.792201 155.597 0.423013 161.99 8.79827H161.995C162.02 8.83716 162.049 8.87118 162.068 8.90521C162.476 9.49823 162.364 10.31 161.801 10.7766Z" fill="#FEBD11"/>
<path d="M136.184 11.7292C135.413 11.7292 134.787 11.1022 134.787 10.3293V1.39993C134.787 0.627051 135.413 0 136.184 0C136.955 0 137.581 0.627051 137.581 1.39993V10.3293C137.581 11.1022 136.955 11.7292 136.184 11.7292Z" fill="#009C47"/>
<path d="M126.749 11.7292C125.978 11.7292 125.352 11.1022 125.352 10.3293V1.39993C125.352 0.627051 125.978 0 126.749 0C127.52 0 128.146 0.627051 128.146 1.39993V10.3293C128.146 11.1022 127.52 11.7292 126.749 11.7292Z" fill="#009C47"/>
<path d="M131.469 11.7292C130.698 11.7292 130.072 11.1022 130.072 10.3293V1.39993C130.072 0.627051 130.698 0 131.469 0C132.24 0 132.866 0.627051 132.866 1.39993V10.3293C132.866 11.1022 132.24 11.7292 131.469 11.7292Z" fill="#009C47"/>
<path d="M131.469 39.5626C129.169 39.5626 127.307 37.7009 127.307 35.3968C127.307 35.3385 127.307 35.2753 127.307 35.217L128.029 17.6352C126.327 16.143 125.352 13.9945 125.352 11.7293V10.3294C125.352 9.55649 125.978 8.92944 126.749 8.92944H136.184C136.955 8.92944 137.581 9.55649 137.581 10.3294V11.7293C137.581 13.9945 136.601 16.1478 134.903 17.6352L135.626 35.217C135.723 37.5161 133.938 39.4605 131.643 39.5577C131.585 39.5577 131.527 39.5577 131.469 39.5577V39.5626ZM128.146 11.7293C128.146 13.3625 128.937 14.8986 130.266 15.8416C130.649 16.1138 130.872 16.5659 130.853 17.0374L130.096 35.3288C130.067 36.0871 130.659 36.719 131.415 36.7481C132.172 36.7773 132.803 36.1843 132.832 35.426C132.832 35.392 132.832 35.3628 132.832 35.3288L132.075 17.0374C132.056 16.5659 132.279 16.1138 132.662 15.8416C133.991 14.8937 134.782 13.3625 134.782 11.7293H128.141H128.146Z" fill="#009C47"/>
<path d="M164.887 39.5625C162.612 39.5625 160.773 37.7057 160.773 35.4308C160.773 35.3579 160.773 35.285 160.778 35.2121L161.447 23.1328L159.492 21.8253C159.066 21.5385 158.828 21.0427 158.876 20.5323L160.118 6.85381C160.467 2.97485 163.713 0 167.603 0C168.374 0 169 0.627051 169 1.39993V35.4405C169 37.7154 167.157 39.5625 164.887 39.5625ZM161.734 19.9587L163.664 21.2468C164.077 21.5239 164.314 21.9954 164.285 22.4912L163.572 35.3676C163.533 36.0967 164.096 36.7189 164.824 36.7578C165.551 36.7967 166.172 36.2328 166.211 35.5037C166.211 35.4843 166.211 35.46 166.211 35.4405V3.00887C164.377 3.57273 163.068 5.1914 162.903 7.10657L161.738 19.9587H161.734Z" fill="#D91A21"/>
</g>
<defs>
<clipPath id="clip0_10106_5086">
<rect width="169" height="40" fill="white"/>
</clipPath>
</defs>
</svg>
