<svg width="169" height="40" viewBox="0 0 169 40" fill="none" xmlns="http://www.w3.org/2000/svg">
<g clip-path="url(#clip0_10090_3849)">
<path d="M5.50575 0C7.75171 0 9.38646 0.45206 10.4051 1.35132C11.4238 2.25058 11.9332 3.78661 11.9332 5.95941C11.9332 8.69607 10.8902 10.4314 8.80436 11.1605L11.7634 16.313C11.9089 16.5415 11.9429 16.7408 11.8604 16.9109C11.7779 17.0811 11.6082 17.1637 11.3511 17.1637H8.70734C8.28531 17.1637 7.97 16.979 7.76142 16.6047L5.14194 11.7438H3.88071V16.4832C3.88071 16.9352 3.65272 17.1637 3.20158 17.1637H0.679124C0.227992 17.1637 0 16.9352 0 16.4832V0.68052C0 0.22846 0.227992 0 0.679124 0H5.50575ZM5.4815 8.4822C6.41772 8.4822 7.07259 8.29262 7.43641 7.90862C7.80022 7.52947 7.97971 6.87811 7.97971 5.95455C7.97971 5.03099 7.79537 4.33588 7.43641 3.97132C7.07744 3.60676 6.41287 3.42204 5.45725 3.42204H3.88071V8.47734H5.4815V8.4822Z" fill="#006395"/>
<path d="M22.5809 14.0722C23.032 13.9118 23.2988 14.0576 23.3813 14.5097L23.648 15.9436C23.7111 16.2985 23.551 16.5658 23.163 16.7457C22.1443 17.1831 20.9801 17.4019 19.6703 17.4019C17.5505 17.4019 15.9739 16.8429 14.9407 15.7249C13.9075 14.6069 13.3884 12.8813 13.3884 10.5481C13.3884 6.01288 15.2318 3.74286 18.9184 3.74286C22.3965 3.74286 24.1331 5.81845 24.1331 9.96476V11.3015C24.1331 11.7536 23.9003 11.982 23.4298 11.982H17.0023C17.1964 13.7173 18.1908 14.5826 19.9856 14.5826C20.8927 14.5826 21.7562 14.4124 22.5809 14.0722ZM17.502 7.21837C17.1867 7.70446 16.9975 8.51622 16.9296 9.6488H20.7618V9.40576C20.7618 7.46142 20.1554 6.48924 18.9427 6.48924C18.2975 6.48924 17.8124 6.73229 17.4971 7.21837H17.502Z" fill="#006395"/>
<path d="M29.5661 17.4019C28.2079 17.4019 27.0291 17.222 26.025 16.8672C25.6515 16.7554 25.4914 16.5123 25.5399 16.138L25.7825 14.5097C25.831 14.0868 26.0832 13.9507 26.5343 14.0965C27.228 14.3395 28.0478 14.4611 28.984 14.4611C30.2792 14.4611 30.9244 14.1062 30.9244 13.3917C30.9244 13.1486 30.8274 12.9299 30.6333 12.7354C30.4393 12.541 30.2307 12.3806 30.0027 12.2591C29.7747 12.1376 29.3867 11.9577 28.8385 11.7147C28.4165 11.5348 28.1303 11.4084 27.9751 11.3258C27.8198 11.2432 27.5773 11.1119 27.2377 10.9223C26.8982 10.7328 26.6556 10.5529 26.5101 10.3779C26.3646 10.1981 26.1996 9.97448 26.0104 9.70713C25.8261 9.43978 25.6951 9.12869 25.6224 8.77385C25.5496 8.419 25.5108 8.01069 25.5108 7.55863C25.5108 5.0164 27.0728 3.74286 30.1919 3.74286C31.4386 3.74286 32.53 3.90327 33.4663 4.22894C33.8398 4.34074 33.9902 4.58379 33.9271 4.95807L33.6845 6.56216C33.636 6.98505 33.4032 7.13088 32.9812 6.99963C32.239 6.79062 31.5162 6.68368 30.8225 6.68368C30.2259 6.68368 29.7893 6.76145 29.5128 6.917C29.2363 7.07255 29.1005 7.33503 29.1005 7.70446C29.1005 8.04472 29.2605 8.32179 29.5855 8.54539C29.9106 8.76413 30.483 9.06064 31.3076 9.43492C32.3894 9.90643 33.1946 10.4314 33.7233 11.0147C34.2472 11.598 34.5092 12.4389 34.5092 13.5423C34.5092 16.1186 32.8599 17.4067 29.5613 17.4067L29.5661 17.4019Z" fill="#006395"/>
<path d="M40.3109 7.55863V12.7597C40.3109 13.3285 40.3933 13.7076 40.5534 13.902C40.7135 14.0965 41.024 14.1937 41.4751 14.1937C41.5381 14.1937 41.6497 14.184 41.8049 14.1694C41.9602 14.1548 42.0669 14.1451 42.13 14.1451C42.5035 14.1111 42.6975 14.3055 42.7121 14.7284L42.7848 16.454C42.7994 16.7797 42.6247 16.9984 42.2512 17.1102C41.7516 17.256 41.1598 17.329 40.4807 17.329C39.1079 17.329 38.1377 17.0324 37.5701 16.4394C37.0026 15.8464 36.7212 14.8062 36.7212 13.3139V7.55377H35.8481C35.4454 7.55377 35.2417 7.34961 35.2417 6.94616V5.12334C35.2417 4.70045 35.4454 4.49143 35.8481 4.49143H36.7455V1.7013C36.7455 1.29784 36.9541 1.09369 37.3761 1.09369H39.656C40.0926 1.09369 40.3109 1.29784 40.3109 1.7013V4.49629H42.1057C42.5277 4.49629 42.7363 4.71503 42.7363 5.15251V6.92672C42.7363 7.34961 42.5277 7.55863 42.1057 7.55863H40.3109Z" fill="#006395"/>
<path d="M54.4027 16.5269C54.4027 16.9498 54.1941 17.1588 53.7721 17.1588H51.8317C51.4291 17.1588 51.2011 16.979 51.1526 16.6241L51.0556 15.7735C50.3619 16.8088 49.2122 17.329 47.6114 17.329C46.5103 17.329 45.6323 16.9984 44.9774 16.3325C44.3225 15.6665 43.9927 14.6944 43.9927 13.416C43.9927 12.7014 44.1042 12.0889 44.3225 11.5688C44.5408 11.0487 44.8367 10.6307 45.2054 10.3147C45.5789 9.99878 46.0689 9.74601 46.6752 9.5613C47.2816 9.37659 47.9073 9.24535 48.5574 9.17243C49.2025 9.09952 49.9787 9.05577 50.8858 9.03633V8.3315C50.8858 7.78223 50.7257 7.37878 50.4104 7.12601C50.0951 6.87325 49.5906 6.75173 48.8921 6.75173C48.0189 6.75173 47.0245 6.93644 45.9088 7.31072C45.4576 7.44197 45.1957 7.29614 45.1326 6.87325L44.8658 5.22056C44.8028 4.84627 44.9483 4.59837 45.3024 4.46712C46.4812 3.99562 47.8588 3.7623 49.4257 3.7623C51.1574 3.7623 52.4187 4.10742 53.2094 4.7928C54.0001 5.48304 54.3978 6.55729 54.3978 8.01555V16.5221L54.4027 16.5269ZM50.8858 11.1557C49.6731 11.1897 48.8096 11.3404 48.2906 11.6029C47.7715 11.8702 47.5144 12.3903 47.5144 13.1729C47.5144 14.2277 47.9753 14.7527 48.8969 14.7527C49.576 14.7527 50.0757 14.5437 50.4007 14.1208C50.7257 13.6979 50.8858 13.1389 50.8858 12.4438V11.1557Z" fill="#006395"/>
<path d="M56.5856 4.64212C56.5856 4.20464 56.7942 3.9859 57.2162 3.9859H59.6174C60.0394 3.9859 60.248 4.20464 60.248 4.64212V12.1764C60.248 12.8424 60.3547 13.3382 60.5633 13.6736C60.7719 14.0041 61.1357 14.1694 61.6547 14.1694C62.2369 14.1694 62.6831 13.9604 62.9887 13.5375C63.2943 13.1146 63.4496 12.5313 63.4496 11.7876V4.64212C63.4496 4.20464 63.6582 3.9859 64.0802 3.9859H66.4814C66.9034 3.9859 67.112 4.20464 67.112 4.64212V16.5269C67.112 16.9498 66.9034 17.1588 66.4814 17.1588H64.3227C63.9007 17.1588 63.6679 16.979 63.6194 16.6241L63.5223 15.7492C62.8287 16.8526 61.776 17.4019 60.3693 17.4019C57.8468 17.4019 56.5856 15.9776 56.5856 13.1243V4.64212Z" fill="#006395"/>
<path d="M72.2297 3.9859C72.6177 3.9859 72.836 4.19006 72.8845 4.59351L73.0058 5.95455C73.2484 5.40527 73.6267 4.91919 74.1458 4.49629C74.6648 4.0734 75.276 3.86438 75.9891 3.86438C76.2316 3.86438 76.3966 3.91299 76.4839 4.01021C76.5712 4.10742 76.6149 4.26783 76.6149 4.49629V7.24268C76.6149 7.61696 76.4354 7.80167 76.0813 7.80167C75.9988 7.80167 75.8775 7.78709 75.7078 7.76279C75.538 7.73848 75.3876 7.7239 75.2566 7.7239C74.5775 7.7239 74.0391 7.98153 73.6413 8.50164C73.2435 9.02175 73.0446 9.70713 73.0446 10.5675V16.5221C73.0446 16.9449 72.836 17.154 72.414 17.154H70.0128C69.5908 17.154 69.3822 16.9449 69.3822 16.5221V4.64212C69.3822 4.20464 69.5908 3.9859 70.0128 3.9859H72.22H72.2297Z" fill="#006395"/>
<path d="M87.4372 16.5269C87.4372 16.9498 87.2286 17.1588 86.8066 17.1588H84.8663C84.4636 17.1588 84.2356 16.979 84.1871 16.6241L84.0901 15.7735C83.3964 16.8088 82.2468 17.329 80.646 17.329C79.5448 17.329 78.6668 16.9984 78.012 16.3325C77.3571 15.6665 77.0272 14.6944 77.0272 13.416C77.0272 12.7014 77.1388 12.0889 77.3571 11.5688C77.5754 11.0487 77.8713 10.6307 78.2399 10.3147C78.6135 9.99878 79.1034 9.74601 79.7098 9.5613C80.3161 9.37659 80.9419 9.24535 81.5919 9.17243C82.2371 9.09952 83.0132 9.05577 83.9203 9.03633V8.3315C83.9203 7.78223 83.7603 7.37878 83.4449 7.12601C83.1296 6.87325 82.6251 6.75173 81.9266 6.75173C81.0535 6.75173 80.059 6.93644 78.9433 7.31072C78.4922 7.44197 78.2302 7.29614 78.1672 6.87325L77.9004 5.22056C77.8373 4.84627 77.9829 4.59837 78.337 4.46712C79.5157 3.99562 80.8934 3.7623 82.4602 3.7623C84.192 3.7623 85.4532 4.10742 86.2439 4.7928C87.0346 5.48304 87.4324 6.55729 87.4324 8.01555V16.5221L87.4372 16.5269ZM83.9203 11.1557C82.7076 11.1897 81.8442 11.3404 81.3251 11.6029C80.8061 11.8702 80.549 12.3903 80.549 13.1729C80.549 14.2277 81.0098 14.7527 81.9315 14.7527C82.6106 14.7527 83.1102 14.5437 83.4352 14.1208C83.7603 13.6979 83.9203 13.1389 83.9203 12.4438V11.1557Z" fill="#006395"/>
<path d="M100.268 16.5269C100.268 16.9498 100.059 17.1588 99.6372 17.1588H97.236C96.814 17.1588 96.6054 16.9498 96.6054 16.5269V8.99259C96.6054 8.32665 96.4938 7.8357 96.2755 7.51002C96.0573 7.18435 95.6886 7.02394 95.1744 7.02394C93.9617 7.02394 93.3553 7.84056 93.3553 9.47867V16.5269C93.3553 16.9498 93.137 17.1588 92.7004 17.1588H90.2992C89.8772 17.1588 89.6686 16.9498 89.6686 16.5269V4.64212C89.6686 4.20464 89.8772 3.9859 90.2992 3.9859H92.4579C92.8799 3.9859 93.1128 4.16575 93.1613 4.5206L93.2825 5.39555C93.9762 4.29214 95.0774 3.74286 96.5812 3.74286C99.0406 3.74286 100.268 5.23514 100.268 8.21485V16.5269Z" fill="#006395"/>
<path d="M106.671 7.55863V12.7597C106.671 13.3285 106.753 13.7076 106.914 13.902C107.074 14.0965 107.384 14.1937 107.835 14.1937C107.898 14.1937 108.01 14.184 108.165 14.1694C108.32 14.1548 108.427 14.1451 108.49 14.1451C108.864 14.1111 109.058 14.3055 109.072 14.7284L109.145 16.454C109.159 16.7797 108.985 16.9984 108.611 17.1102C108.112 17.256 107.52 17.329 106.841 17.329C105.468 17.329 104.498 17.0324 103.93 16.4394C103.363 15.8464 103.081 14.8062 103.081 13.3139V7.55377H102.208C101.806 7.55377 101.602 7.34961 101.602 6.94616V5.12334C101.602 4.70045 101.806 4.49143 102.208 4.49143H103.106V1.7013C103.106 1.29784 103.314 1.09369 103.736 1.09369H106.016C106.453 1.09369 106.671 1.29784 106.671 1.7013V4.49629H108.466C108.888 4.49629 109.096 4.71503 109.096 5.15251V6.92672C109.096 7.34961 108.888 7.55863 108.466 7.55863H106.671Z" fill="#006395"/>
<path d="M119.55 14.0722C120.001 13.9118 120.268 14.0576 120.35 14.5097L120.617 15.9436C120.68 16.2985 120.52 16.5658 120.132 16.7457C119.114 17.1831 117.949 17.4019 116.64 17.4019C114.52 17.4019 112.943 16.8429 111.91 15.7249C110.877 14.6069 110.358 12.8813 110.358 10.5481C110.358 6.01288 112.201 3.74286 115.888 3.74286C119.366 3.74286 121.102 5.81845 121.102 9.96476V11.3015C121.102 11.7536 120.87 11.982 120.399 11.982H113.972C114.166 13.7173 115.16 14.5826 116.955 14.5826C117.862 14.5826 118.725 14.4124 119.55 14.0722ZM114.466 7.21837C114.151 7.70446 113.962 8.51622 113.894 9.6488H117.726V9.40576C117.726 7.46142 117.12 6.48924 115.907 6.48924C115.262 6.48924 114.777 6.73229 114.462 7.21837H114.466Z" fill="#006395"/>
<path d="M0.460834 37.3265C0.155228 37.3265 0 37.1661 0 36.8404V20.7267C0 20.401 0.155228 20.2406 0.460834 20.2406H4.43856C6.60691 20.2406 8.17374 20.6975 9.14392 21.6162C10.1141 22.5301 10.5992 24.0758 10.5992 26.2486C10.5992 28.4214 10.1189 29.9575 9.15362 30.8567C8.18829 31.756 6.62631 32.2032 4.46281 32.2032H2.49821V36.8453C2.49821 37.171 2.33813 37.3314 2.01312 37.3314H0.460834V37.3265ZM4.46281 29.938C5.77255 29.938 6.69422 29.6707 7.22782 29.136C7.76142 28.6013 8.02821 27.6291 8.02821 26.2195C8.02821 24.8098 7.76142 23.8571 7.22782 23.3127C6.69422 22.7682 5.77255 22.496 4.46281 22.496H2.49821V29.9332H4.46281V29.938Z" fill="#D91A21"/>
<path d="M13.825 35.8683C12.9373 34.7503 12.491 33.083 12.491 30.8616C12.491 28.6402 12.9373 26.9972 13.825 25.8792C14.7127 24.7612 15.9982 24.2022 17.6815 24.2022C19.3647 24.2022 20.6308 24.7612 21.5282 25.8792C22.4256 26.9972 22.8719 28.6596 22.8719 30.8616C22.8719 33.0636 22.4256 34.7503 21.5379 35.8683C20.6502 36.9863 19.3647 37.5453 17.6815 37.5453C15.9982 37.5453 14.7127 36.9863 13.825 35.8683ZM20.4707 30.8616C20.4707 27.7652 19.5394 26.2195 17.6815 26.2195C15.8236 26.2195 14.8922 27.7652 14.8922 30.8616C14.8922 33.958 15.8236 35.528 17.6815 35.528C19.5394 35.528 20.4707 33.9725 20.4707 30.8616Z" fill="#D91A21"/>
<path d="M27.5773 26.1709C27.8344 25.5876 28.2855 25.1112 28.9258 24.7466C29.5661 24.3821 30.2792 24.2022 31.0748 24.2022C34.1793 24.2022 35.7316 26.4236 35.7316 30.8616C35.7316 33.0976 35.3338 34.7697 34.5334 35.8829C33.733 36.9911 32.5785 37.5501 31.0796 37.5501C30.255 37.5501 29.537 37.3849 28.921 37.0495C28.3049 36.7189 27.878 36.2426 27.6355 35.6301V39.5674C27.6355 39.859 27.4803 40.0049 27.1746 40.0049H25.7194C25.4138 40.0049 25.2585 39.859 25.2585 39.5674V24.8876C25.2585 24.5814 25.4138 24.4258 25.7194 24.4258H27.1019C27.4075 24.4258 27.5627 24.5619 27.5627 24.839L27.587 26.1757L27.5773 26.1709ZM30.5363 35.528C31.4725 35.528 32.1711 35.1586 32.6222 34.4197C33.0733 33.6809 33.3013 32.4948 33.3013 30.8567C33.3013 29.2186 33.0782 28.0374 32.6319 27.3083C32.1856 26.5792 31.4871 26.2146 30.5315 26.2146C28.5765 26.2146 27.5967 27.7604 27.5967 30.8567C27.5967 33.9531 28.5765 35.5231 30.5315 35.5231L30.5363 35.528Z" fill="#D91A21"/>
<path d="M37.9582 24.8827C37.9582 24.5765 38.1037 24.4209 38.3948 24.4209H39.8743C40.1653 24.4209 40.3109 24.5765 40.3109 24.8827V32.8059C40.3109 33.6663 40.4709 34.3128 40.7814 34.7502C41.0967 35.1877 41.6352 35.4065 42.3968 35.4065C43.2068 35.4065 43.852 35.1245 44.3371 34.5558C44.8222 33.9871 45.0647 33.2191 45.0647 32.2469V24.8827C45.0647 24.5765 45.2103 24.4209 45.5013 24.4209H46.9808C47.2573 24.4209 47.3932 24.5765 47.3932 24.8827V36.889C47.3932 37.1807 47.2573 37.3265 46.9808 37.3265H45.5498C45.2588 37.3265 45.1132 37.1904 45.1132 36.9133L45.0647 35.6495C44.4341 36.9133 43.3281 37.5452 41.7419 37.5452C40.4661 37.5452 39.5153 37.171 38.8896 36.4272C38.2686 35.6835 37.9582 34.6287 37.9582 33.2677V24.8827Z" fill="#D91A21"/>
<path d="M52.6564 36.889C52.6564 37.1807 52.5109 37.3265 52.2198 37.3265H50.7403C50.4492 37.3265 50.3037 37.1807 50.3037 36.889V20.6781C50.3037 20.3864 50.4492 20.2406 50.7403 20.2406H52.2198C52.5109 20.2406 52.6564 20.3864 52.6564 20.6781V36.889Z" fill="#D91A21"/>
<path d="M64.347 36.889C64.347 37.1807 64.1917 37.3265 63.8861 37.3265H62.6006C62.3096 37.3265 62.1641 37.1904 62.1641 36.9133L62.1398 35.5766C61.4607 36.855 60.248 37.4966 58.5016 37.4966C57.3714 37.4966 56.4885 37.1758 55.8579 36.5342C55.2273 35.8926 54.912 34.9884 54.912 33.8218C54.912 32.9615 55.0818 32.242 55.4213 31.6587C55.7609 31.0754 56.2654 30.6282 56.9348 30.3123C57.6042 29.9963 58.3464 29.7727 59.1565 29.6415C59.9666 29.5102 60.9368 29.4373 62.067 29.4227V28.4992C62.067 27.7069 61.8779 27.1236 61.4946 26.759C61.1163 26.3944 60.4954 26.2146 59.6416 26.2146C58.686 26.2146 57.6527 26.4236 56.537 26.8465C56.246 26.9291 56.0665 26.8319 56.0034 26.5548L55.7366 25.4125C55.6881 25.1695 55.7949 24.9994 56.0519 24.9022C57.1531 24.4306 58.4386 24.1973 59.9084 24.1973C61.3782 24.1973 62.5667 24.5424 63.2798 25.2278C63.9928 25.9181 64.347 26.968 64.347 28.3777V36.8842V36.889ZM62.067 31.0803C61.2569 31.1143 60.5972 31.1629 60.0782 31.2358C59.5591 31.3088 59.0595 31.4351 58.5744 31.615C58.0893 31.7948 57.7352 32.0525 57.5072 32.3927C57.2792 32.733 57.1676 33.1705 57.1676 33.7052C57.1676 34.303 57.3277 34.7843 57.643 35.1391C57.9583 35.494 58.4289 35.6738 59.0595 35.6738C59.9957 35.6738 60.7331 35.3773 61.2666 34.7891C61.8002 34.1961 62.067 33.4573 62.067 32.5629V31.0803Z" fill="#D91A21"/>
<path d="M68.9553 24.4209C69.2609 24.4209 69.4162 24.5668 69.4162 24.8584L69.4404 26.6326C69.649 26.0153 70.0419 25.4758 70.6192 25.014C71.1964 24.5522 71.8853 24.3237 72.6954 24.3237C72.9864 24.3237 73.1319 24.4598 73.1319 24.7369V26.5111C73.1319 26.7687 73.0107 26.9 72.7681 26.9C72.7196 26.9 72.6274 26.8903 72.4868 26.8757C72.3509 26.8611 72.2151 26.8514 72.089 26.8514C71.3129 26.8514 70.6822 27.2257 70.1972 27.9694C69.7121 28.7131 69.4695 29.6318 69.4695 30.7158V36.889C69.4695 37.1807 69.3143 37.3265 69.0087 37.3265H67.5534C67.2478 37.3265 67.0926 37.1807 67.0926 36.889V24.8827C67.0926 24.5765 67.2478 24.4209 67.5534 24.4209H68.9602H68.9553Z" fill="#D91A21"/>
<path d="M87.3645 32.4171L83.605 24.8827V36.8404C83.605 37.1661 83.4595 37.3265 83.1684 37.3265H81.6162C81.3106 37.3265 81.1553 37.1661 81.1553 36.8404V20.7024C81.1553 20.3961 81.3106 20.2406 81.6162 20.2406H83.1199C83.3964 20.2406 83.5808 20.3378 83.6778 20.5323L87.8253 28.82L91.9971 20.5323C92.0941 20.3378 92.2736 20.2406 92.5307 20.2406H94.0344C94.34 20.2406 94.4953 20.3961 94.4953 20.7024V36.8404C94.4953 37.1661 94.34 37.3265 94.0344 37.3265H92.4821C92.1911 37.3265 92.0456 37.1661 92.0456 36.8404V24.8827L88.2861 32.4171C88.2037 32.6115 88.0533 32.7087 87.8253 32.7087C87.6313 32.7087 87.476 32.6115 87.3645 32.4171Z" fill="#D91A21"/>
<path d="M104.076 20.2406C104.381 20.2406 104.585 20.401 104.682 20.7267L109.387 36.8161C109.436 36.962 109.426 37.0835 109.349 37.1807C109.276 37.2779 109.164 37.3265 109.024 37.3265H107.35C107.093 37.3265 106.913 37.1807 106.816 36.889L105.774 33.1462H100.292L99.2491 36.889C99.186 37.1807 99.0066 37.3265 98.7155 37.3265H97.0419C96.7024 37.3265 96.5714 37.1564 96.6539 36.8161L101.359 20.7267C101.456 20.401 101.66 20.2406 101.966 20.2406H104.076ZM105.167 30.9345L103.057 22.7926H103.009L100.898 30.9345H105.167Z" fill="#D91A21"/>
<path d="M156.092 15.5839C156.053 15.5645 156.009 15.5548 155.971 15.5548H150.901C150.795 15.5548 150.703 15.4867 150.669 15.3846L149.373 11.3161C149.15 10.6113 148.5 10.1349 147.763 10.1252C147.021 10.1252 146.366 10.587 146.128 11.2918L144.76 15.3895C144.726 15.4867 144.634 15.5548 144.532 15.5548H139.904C139.167 15.5548 138.517 16.0263 138.284 16.7311C138.056 17.4359 138.299 18.2039 138.895 18.6463L142.592 21.3683C142.674 21.4315 142.713 21.5433 142.679 21.6406L141.248 25.9376C140.865 27.0799 141.733 28.3826 143.329 28.2173C143.373 28.2173 143.416 28.193 143.455 28.1687L147.511 25.2036C147.598 25.1404 147.714 25.1404 147.797 25.2036L151.401 27.8625C151.702 28.0861 152.056 28.1979 152.415 28.1979C152.774 28.1979 153.113 28.0909 153.409 27.877C154.016 27.4444 154.268 26.6715 154.04 25.9667L152.667 21.6503C152.633 21.5482 152.667 21.4413 152.754 21.3781L156.499 18.6463C156.528 18.6268 156.553 18.6025 156.582 18.5782C157.474 17.8345 157.469 16.3179 156.092 15.5839ZM152.444 18.5004L150.411 19.9879C149.975 20.3038 149.791 20.8677 149.955 21.3829L150.683 23.6724C150.756 23.896 150.499 24.0807 150.31 23.9397L148.398 22.5301C148.175 22.3648 147.918 22.287 147.656 22.287C147.394 22.287 147.137 22.3648 146.924 22.5252L145.022 23.9106C144.833 24.0515 144.576 23.862 144.649 23.6384L145.396 21.3927C145.57 20.8774 145.396 20.3087 144.954 19.9879L142.927 18.4907C142.737 18.3498 142.834 18.0532 143.072 18.0532H146.342C146.448 18.0532 146.54 17.9852 146.57 17.888L147.496 15.1027C147.569 14.8791 147.884 14.884 147.957 15.1027L148.617 17.1783C148.782 17.6984 149.262 18.0532 149.81 18.0532H152.303C152.536 18.0532 152.638 18.3546 152.444 18.4907V18.5004Z" fill="#006395"/>
<path d="M163.819 27.809C163.8 27.8624 163.776 27.9159 163.747 27.9694C163.742 27.9694 163.737 27.984 163.732 27.9888C160.744 33.8462 154.656 37.8126 147.714 37.8126C141.748 37.8126 136.169 34.8475 132.822 29.8991C132.386 29.2624 132.55 28.3923 133.191 27.9548C133.831 27.5222 134.699 27.6874 135.131 28.3242C138.071 32.6698 142.859 35.0176 147.729 35.0176C150.664 35.0176 153.628 34.167 156.242 32.3928C158.396 30.9296 160.128 28.9464 161.282 26.6521C161.646 25.9667 162.49 25.7091 163.174 26.0736C163.8 26.409 164.067 27.1625 163.819 27.809Z" fill="#FEBD11"/>
<path d="M161.801 10.7765C161.205 11.2675 160.322 11.18 159.832 10.5821C159.812 10.5578 159.793 10.5335 159.774 10.5043C154.375 3.43176 143.795 2.40126 137.154 8.82731C136.591 9.35229 135.708 9.32312 135.18 8.7544C134.67 8.20512 134.685 7.34475 135.214 6.81492C143.072 -0.792323 155.597 0.422891 161.99 8.79815H161.995C162.02 8.83704 162.049 8.87106 162.068 8.90509C162.476 9.49811 162.364 10.3099 161.801 10.7765Z" fill="#FEBD11"/>
<path d="M136.184 11.7293C135.413 11.7293 134.787 11.1022 134.787 10.3293V1.39993C134.787 0.627051 135.413 0 136.184 0C136.955 0 137.581 0.627051 137.581 1.39993V10.3293C137.581 11.1022 136.955 11.7293 136.184 11.7293Z" fill="#009C47"/>
<path d="M126.749 11.7293C125.978 11.7293 125.352 11.1022 125.352 10.3293V1.39993C125.352 0.627051 125.978 0 126.749 0C127.52 0 128.146 0.627051 128.146 1.39993V10.3293C128.146 11.1022 127.52 11.7293 126.749 11.7293Z" fill="#009C47"/>
<path d="M131.469 11.7293C130.697 11.7293 130.072 11.1022 130.072 10.3293V1.39993C130.072 0.627051 130.697 0 131.469 0C132.24 0 132.866 0.627051 132.866 1.39993V10.3293C132.866 11.1022 132.24 11.7293 131.469 11.7293Z" fill="#009C47"/>
<path d="M131.469 39.5625C129.169 39.5625 127.307 37.7008 127.307 35.3968C127.307 35.3384 127.307 35.2752 127.307 35.2169L128.029 17.6352C126.327 16.1429 125.352 13.9944 125.352 11.7292V10.3293C125.352 9.55643 125.978 8.92938 126.749 8.92938H136.184C136.955 8.92938 137.581 9.55643 137.581 10.3293V11.7292C137.581 13.9944 136.601 16.1478 134.903 17.6352L135.626 35.2169C135.723 37.5161 133.938 39.4604 131.643 39.5576C131.585 39.5576 131.527 39.5576 131.469 39.5576V39.5625ZM128.146 11.7292C128.146 13.3625 128.937 14.8985 130.266 15.8415C130.649 16.1137 130.872 16.5658 130.853 17.0373L130.096 35.3287C130.067 36.087 130.659 36.7189 131.415 36.7481C132.172 36.7772 132.803 36.1842 132.832 35.4259C132.832 35.3919 132.832 35.3627 132.832 35.3287L132.075 17.0373C132.056 16.5658 132.279 16.1137 132.662 15.8415C133.991 14.8937 134.782 13.3625 134.782 11.7292H128.141H128.146Z" fill="#009C47"/>
<path d="M164.886 39.5625C162.611 39.5625 160.773 37.7057 160.773 35.4308C160.773 35.3579 160.773 35.285 160.778 35.2121L161.447 23.1328L159.492 21.8253C159.065 21.5385 158.828 21.0427 158.876 20.5323L160.118 6.85381C160.467 2.97485 163.713 0 167.603 0C168.374 0 169 0.627051 169 1.39993V35.4405C169 37.7154 167.157 39.5625 164.886 39.5625ZM161.733 19.9587L163.664 21.2468C164.076 21.5239 164.314 21.9954 164.285 22.4912L163.572 35.3676C163.533 36.0967 164.096 36.7189 164.823 36.7578C165.551 36.7967 166.172 36.2328 166.211 35.5037C166.211 35.4843 166.211 35.46 166.211 35.4405V3.00887C164.377 3.57273 163.067 5.1914 162.902 7.10657L161.738 19.9587H161.733Z" fill="#D91A21"/>
</g>
<defs>
<clipPath id="clip0_10090_3849">
<rect width="169" height="40" fill="white"/>
</clipPath>
</defs>
</svg>
