<svg width="123" height="35" viewBox="0 0 123 35" fill="none" xmlns="http://www.w3.org/2000/svg">
<g clip-path="url(#clip0_10773_984)">
<path fill-rule="evenodd" clip-rule="evenodd" d="M115.05 18.16C112.67 18.16 110.54 19.21 109.09 20.88C110.15 22.33 110.78 24.12 110.78 26.06C110.78 28 110.15 29.79 109.09 31.24C110.4 32.74 112.27 33.75 114.37 33.93C114.38 33.32 114.39 32.94 114.39 32.94C114.45 31.27 114.48 29.92 114.44 29.46C114.44 29.39 114.42 29.29 114.29 29.2C113.23 28.48 112.5 27.29 112.51 25.22C112.52 22.89 113.91 21.01 115.08 21.02C116.25 21.02 117.61 22.92 117.6 25.25C117.59 27.31 116.84 28.49 115.78 29.2C115.64 29.29 115.63 29.39 115.62 29.46C115.6 29.65 115.62 31.59 115.66 33.93C119.74 33.62 122.95 30.21 122.95 26.05C122.95 21.89 119.41 18.15 115.05 18.15" fill="#009C46"/>
<path fill-rule="evenodd" clip-rule="evenodd" d="M101.99 18.16C97.63 18.16 94.09 21.7 94.09 26.06C94.09 30.18 97.24 33.56 101.26 33.93C101.28 32.58 101.3 31.21 101.32 30.04C100.18 29.66 99.8 28.02 99.9 26.26C100.02 24.05 100.86 21.17 101.51 20.15C101.95 19.46 102.48 19.84 102.48 20.28C102.48 20.61 102.38 28.78 102.4 30.03C102.42 31.21 102.44 32.59 102.46 33.95C106.61 33.71 109.89 30.27 109.89 26.06C109.89 21.85 106.35 18.16 101.99 18.16Z" fill="#B72B30"/>
<path fill-rule="evenodd" clip-rule="evenodd" d="M95 20.73C93.56 19.15 91.48 18.15 89.16 18.15C84.8 18.15 81.26 21.69 81.26 26.05C81.26 30.18 84.44 33.58 88.48 33.92C88.5 32.38 88.52 31.02 88.53 30.1C87.96 29.82 87.58 29.38 87.34 28.86C86.9 27.92 86.95 26.92 87.06 25.91C87.15 25.08 87.63 20.24 87.63 20.24C87.63 20.15 87.8 20.15 87.8 20.24L87.84 25.91C87.84 26.21 88.24 26.21 88.24 25.91L88.6 20.24C88.6 20.15 88.77 20.15 88.77 20.24L88.95 25.91C88.95 26.06 89.05 26.14 89.16 26.14C89.26 26.14 89.37 26.07 89.37 25.91L89.55 20.24C89.55 20.15 89.72 20.15 89.72 20.24L90.08 25.91C90.08 26.21 90.48 26.21 90.48 25.91L90.52 20.24C90.52 20.15 90.69 20.15 90.69 20.24C90.69 20.24 91.17 25.08 91.26 25.91C91.37 26.92 91.41 27.92 90.98 28.86C90.74 29.38 90.36 29.82 89.79 30.1C89.8 31.02 89.82 32.38 89.84 33.92C91.88 33.75 93.7 32.8 95 31.37C93.87 29.89 93.21 28.05 93.21 26.05C93.21 24.05 93.88 22.21 95 20.73Z" fill="#F08E22"/>
<path d="M4.96 0.220001C6.99 0.220001 8.46 0.620001 9.38 1.43C10.3 2.24 10.76 3.62 10.76 5.57C10.76 8.03 9.82 9.59 7.94 10.25L10.61 14.89C10.74 15.09 10.77 15.27 10.7 15.43C10.63 15.58 10.47 15.66 10.24 15.66H7.86C7.48 15.66 7.2 15.49 7.01 15.16L4.65 10.79H3.51V15.05C3.51 15.46 3.31 15.66 2.9 15.66H0.61C0.2 15.66 0 15.46 0 15.05V0.830001C0 0.420001 0.2 0.220001 0.61 0.220001H4.96ZM4.94 7.85C5.79 7.85 6.37 7.68 6.7 7.34C7.03 7 7.19 6.41 7.19 5.58C7.19 4.75 7.03 4.13 6.7 3.8C6.37 3.47 5.78 3.31 4.92 3.31H3.5V7.86H4.94V7.85Z" fill="#046596"/>
<path d="M15.01 9.27V12.57H19.84C20.25 12.57 20.45 12.77 20.45 13.18V15.04C20.45 15.45 20.25 15.65 19.84 15.65H12.14C11.73 15.65 11.53 15.45 11.53 15.04V0.830001C11.53 0.420001 11.73 0.220001 12.14 0.220001H19.75C20.16 0.220001 20.36 0.420001 20.36 0.830001V2.69C20.36 3.1 20.16 3.3 19.75 3.3H15V6.32H19.51C19.9 6.32 20.1 6.52 20.1 6.93V8.68C20.1 9.07 19.9 9.27 19.51 9.27H15H15.01Z" fill="#046596"/>
<path d="M29.35 14.8C28.39 15.52 27.12 15.88 25.54 15.88C23.96 15.88 22.7 15.67 21.65 15.25C21.43 15.16 21.28 15.06 21.2 14.95C21.12 14.84 21.1 14.68 21.15 14.48L21.5 12.8C21.6 12.36 21.86 12.22 22.29 12.38C23.12 12.69 23.98 12.84 24.87 12.84C26.43 12.84 27.21 12.36 27.21 11.4C27.21 10.98 27.05 10.62 26.72 10.33C26.39 10.04 25.81 9.65999 24.96 9.18999C24.39 8.90999 23.92 8.64999 23.56 8.40999C23.2 8.16999 22.82 7.85999 22.43 7.46999C22.04 7.07999 21.76 6.61999 21.57 6.08999C21.38 5.55999 21.29 4.94999 21.29 4.25999C21.29 2.79999 21.7 1.72999 22.53 1.02999C23.35 0.33999 24.63 -0.0100098 26.37 -0.0100098C27.65 -0.0100098 28.77 0.16999 29.72 0.53999C30.11 0.68999 30.27 0.92999 30.2 1.27999L29.85 2.95999C29.76 3.33999 29.51 3.46999 29.08 3.34999C28.39 3.12999 27.63 3.01999 26.78 3.01999C26.11 3.01999 25.62 3.11999 25.33 3.31999C25.03 3.51999 24.88 3.84999 24.88 4.31999C24.88 4.75999 25.06 5.14999 25.43 5.48999C25.79 5.82999 26.33 6.18999 27.05 6.56999C27.71 6.92999 28.21 7.23999 28.57 7.47999C28.93 7.71999 29.31 8.02999 29.71 8.41999C30.11 8.80999 30.4 9.23999 30.56 9.72999C30.73 10.22 30.81 10.79 30.81 11.45C30.81 12.95 30.33 14.06 29.37 14.79" fill="#046596"/>
<path d="M31.54 0.830001C31.54 0.420001 31.74 0.220001 32.15 0.220001H40.64C41.05 0.220001 41.25 0.420001 41.25 0.830001V2.78C41.25 3.2 41.05 3.41 40.64 3.41H38.17V15.04C38.17 15.45 37.97 15.65 37.56 15.65H35.26C34.85 15.65 34.65 15.45 34.65 15.04V3.41H32.16C31.75 3.41 31.55 3.2 31.55 2.78V0.830001H31.54Z" fill="#046596"/>
<path d="M49.8 0.220001C50.05 0.220001 50.23 0.270001 50.34 0.360001C50.45 0.450001 50.53 0.610001 50.59 0.830001L54.35 14.96C54.41 15.16 54.39 15.33 54.3 15.46C54.21 15.59 54.06 15.66 53.85 15.66H51.47C51.09 15.66 50.86 15.47 50.77 15.09L50.16 12.66H46.27L45.66 15.09C45.57 15.47 45.35 15.66 44.98 15.66H42.57C42.37 15.66 42.22 15.59 42.12 15.46C42.03 15.33 42.01 15.16 42.07 14.96L45.83 0.830001C45.89 0.610001 45.97 0.450001 46.08 0.360001C46.19 0.270001 46.38 0.220001 46.64 0.220001H49.81H49.8ZM49.62 9.64L48.24 3.69H48.17L46.77 9.64H49.61H49.62Z" fill="#046596"/>
<path d="M56.52 14.6C55.64 13.75 55.2 12.42 55.2 10.61V0.830001C55.2 0.420001 55.4 0.220001 55.81 0.220001H58.11C58.52 0.220001 58.72 0.420001 58.72 0.830001V10.21C58.72 11.08 58.86 11.72 59.15 12.11C59.43 12.5 59.92 12.7 60.6 12.7C61.28 12.7 61.75 12.5 62.03 12.11C62.31 11.72 62.46 11.09 62.46 10.23V0.830001C62.46 0.420001 62.66 0.220001 63.07 0.220001H65.37C65.78 0.220001 65.98 0.420001 65.98 0.830001V10.61C65.98 12.42 65.54 13.75 64.66 14.6C63.78 15.45 62.43 15.88 60.6 15.88C58.77 15.88 57.4 15.45 56.52 14.6Z" fill="#046596"/>
<path d="M71.71 0.220001C73.74 0.220001 75.21 0.620001 76.13 1.43C77.05 2.24 77.51 3.62 77.51 5.57C77.51 8.03 76.57 9.59 74.69 10.25L77.36 14.89C77.49 15.09 77.52 15.27 77.45 15.43C77.38 15.58 77.22 15.66 76.99 15.66H74.61C74.23 15.66 73.95 15.49 73.76 15.16L71.4 10.79H70.26V15.05C70.26 15.46 70.06 15.66 69.65 15.66H67.38C66.97 15.66 66.77 15.46 66.77 15.05V0.830001C66.77 0.420001 66.97 0.220001 67.38 0.220001H71.73H71.71ZM71.69 7.85C72.54 7.85 73.12 7.68 73.45 7.34C73.78 7 73.94 6.41 73.94 5.58C73.94 4.75 73.78 4.13 73.45 3.8C73.12 3.47 72.53 3.31 71.67 3.31H70.25V7.86H71.69V7.85Z" fill="#046596"/>
<path d="M102.68 15.05C102.68 15.46 102.48 15.66 102.07 15.66H99.93C99.57 15.66 99.31 15.51 99.16 15.2L95.03 6.85V15.05C95.03 15.46 94.83 15.66 94.42 15.66H92.23C91.82 15.66 91.62 15.46 91.62 15.05V0.830001C91.62 0.420001 91.82 0.220001 92.23 0.220001H94.35C94.73 0.220001 94.99 0.370001 95.14 0.660001L99.27 9.04V0.830001C99.27 0.420001 99.47 0.220001 99.88 0.220001H102.07C102.48 0.220001 102.68 0.420001 102.68 0.830001V15.05Z" fill="#046596"/>
<path d="M103.44 0.830001C103.44 0.420001 103.64 0.220001 104.05 0.220001H112.54C112.95 0.220001 113.15 0.420001 113.15 0.830001V2.78C113.15 3.2 112.95 3.41 112.54 3.41H110.07V15.04C110.07 15.45 109.87 15.65 109.46 15.65H107.16C106.75 15.65 106.55 15.45 106.55 15.04V3.41H104.06C103.65 3.41 103.45 3.2 103.45 2.78V0.830001H103.44Z" fill="#046596"/>
<path d="M117.4 9.27V12.57H122.23C122.64 12.57 122.84 12.77 122.84 13.18V15.04C122.84 15.45 122.64 15.65 122.23 15.65H114.53C114.12 15.65 113.92 15.45 113.92 15.04V0.830001C113.92 0.420001 114.12 0.220001 114.53 0.220001H122.14C122.55 0.220001 122.75 0.420001 122.75 0.830001V2.69C122.75 3.1 122.55 3.3 122.14 3.3H117.39V6.32H121.9C122.29 6.32 122.49 6.52 122.49 6.93V8.68C122.49 9.07 122.29 9.27 121.9 9.27H117.39H117.4Z" fill="#046596"/>
<path d="M0.61 33.88C0.2 33.88 0 33.68 0 33.27V19.05C0 18.64 0.2 18.44 0.61 18.44H4.81C6.85 18.44 8.33 18.86 9.24 19.69C10.15 20.52 10.61 21.96 10.61 24.02C10.61 26.08 10.15 27.5 9.24 28.33C8.33 29.16 6.85 29.58 4.81 29.58H3.5V33.28C3.5 33.69 3.3 33.89 2.89 33.89H0.61V33.88ZM4.79 26.51C5.64 26.51 6.22 26.33 6.55 25.97C6.88 25.61 7.04 24.96 7.04 24.01C7.04 23.06 6.88 22.41 6.55 22.05C6.22 21.69 5.64 21.51 4.79 21.51H3.5V26.5H4.79V26.51Z" fill="#046596"/>
<path d="M24.52 33.88C24.11 33.88 23.91 33.68 23.91 33.27V19.05C23.91 18.64 24.11 18.44 24.52 18.44H28.72C30.76 18.44 32.24 18.86 33.15 19.69C34.06 20.52 34.52 21.96 34.52 24.02C34.52 26.08 34.06 27.5 33.15 28.33C32.24 29.16 30.76 29.58 28.72 29.58H27.41V33.28C27.41 33.69 27.21 33.89 26.8 33.89H24.53L24.52 33.88ZM28.7 26.51C29.55 26.51 30.13 26.33 30.46 25.97C30.79 25.61 30.95 24.96 30.95 24.01C30.95 23.06 30.79 22.41 30.46 22.05C30.13 21.69 29.55 21.51 28.7 21.51H27.41V26.5H28.7V26.51Z" fill="#046596"/>
<path d="M36.58 32.82C35.7 31.97 35.26 30.64 35.26 28.83V19.05C35.26 18.64 35.46 18.44 35.87 18.44H38.17C38.58 18.44 38.78 18.64 38.78 19.05V28.43C38.78 29.3 38.92 29.94 39.21 30.33C39.49 30.72 39.98 30.92 40.66 30.92C41.34 30.92 41.81 30.72 42.09 30.33C42.37 29.94 42.52 29.31 42.52 28.45V19.05C42.52 18.64 42.72 18.44 43.13 18.44H45.43C45.84 18.44 46.04 18.64 46.04 19.05V28.83C46.04 30.64 45.6 31.97 44.72 32.82C43.84 33.67 42.49 34.1 40.66 34.1C38.83 34.1 37.46 33.67 36.58 32.82Z" fill="#046596"/>
<path d="M50.3 30.69H54.54C54.95 30.69 55.15 30.89 55.15 31.3V33.27C55.15 33.68 54.95 33.88 54.54 33.88H47.39C46.98 33.88 46.78 33.68 46.78 33.27V19.05C46.78 18.64 46.98 18.44 47.39 18.44H49.69C50.1 18.44 50.3 18.64 50.3 19.05V30.68V30.69Z" fill="#046596"/>
<path d="M63.67 18.44C63.92 18.44 64.1 18.49 64.21 18.58C64.32 18.67 64.4 18.83 64.46 19.05L68.22 33.18C68.28 33.38 68.26 33.55 68.17 33.68C68.08 33.81 67.93 33.88 67.72 33.88H65.34C64.96 33.88 64.73 33.69 64.64 33.31L64.03 30.88H60.14L59.53 33.31C59.44 33.69 59.22 33.88 58.85 33.88H56.44C56.24 33.88 56.09 33.81 55.99 33.68C55.9 33.55 55.88 33.38 55.94 33.18L59.7 19.05C59.76 18.83 59.84 18.67 59.95 18.58C60.06 18.49 60.25 18.44 60.51 18.44H63.68H63.67ZM63.49 27.87L62.11 21.92H62.04L60.64 27.87H63.48H63.49Z" fill="#046596"/>
<path d="M73.96 18.44C75.99 18.44 77.46 18.84 78.38 19.65C79.3 20.46 79.76 21.84 79.76 23.79C79.76 26.25 78.82 27.81 76.94 28.47L79.61 33.11C79.74 33.31 79.77 33.49 79.7 33.65C79.63 33.8 79.47 33.88 79.24 33.88H76.86C76.48 33.88 76.2 33.71 76.01 33.38L73.65 29.01H72.51V33.27C72.51 33.68 72.31 33.88 71.9 33.88H69.63C69.22 33.88 69.02 33.68 69.02 33.27V19.05C69.02 18.64 69.22 18.44 69.63 18.44H73.98H73.96ZM73.94 26.08C74.79 26.08 75.37 25.91 75.7 25.57C76.03 25.23 76.19 24.64 76.19 23.81C76.19 22.98 76.03 22.36 75.7 22.03C75.37 21.7 74.78 21.54 73.92 21.54H72.5V26.09H73.94V26.08Z" fill="#046596"/>
<path d="M23.17 26.16C23.17 29 22.68 31.04 21.68 32.26C20.69 33.49 19.21 34.1 17.24 34.1C15.27 34.1 13.81 33.49 12.82 32.26C11.83 31.04 11.33 29 11.33 26.16C11.33 23.32 11.82 21.28 12.82 20.05C13.82 18.82 15.29 18.2 17.26 18.2C19.23 18.2 20.68 18.82 21.68 20.05C22.68 21.28 23.17 23.32 23.17 26.16ZM16.67 25.15H14.33L16.22 26.52L15.5 28.74L17.39 27.37L19.28 28.74L18.56 26.52L20.45 25.15H18.11L17.39 22.93L16.67 25.15Z" fill="#046596"/>
<path d="M90.66 15.46C90.56 15.59 90.42 15.66 90.21 15.66H87.83C87.45 15.66 87.22 15.47 87.13 15.09L86.52 12.66H82.63L82.02 15.09C81.93 15.47 81.71 15.66 81.34 15.66H78.93C78.73 15.66 78.58 15.59 78.48 15.46C78.38 15.33 78.37 15.16 78.42 14.96L82.18 0.830001C82.24 0.610001 82.32 0.450001 82.43 0.360001C82.54 0.260001 82.73 0.220001 82.99 0.220001H86.16C86.41 0.220001 86.59 0.270001 86.7 0.360001C86.81 0.450001 86.89 0.610001 86.95 0.830001L90.71 14.96C90.77 15.16 90.75 15.33 90.65 15.46M83.81 6.63H81.47L83.36 8L82.64 10.22L84.53 8.85L86.42 10.22L85.7 8L87.59 6.63H85.25L84.53 4.41L83.81 6.63Z" fill="#046596"/>
</g>
<defs>
<clipPath id="clip0_10773_984">
<rect width="122.95" height="34.1" fill="white"/>
</clipPath>
</defs>
</svg>
